<?xml version="1.0" standalone="no"?>
<!DOCTYPE svg PUBLIC "-//W3C//DTD SVG 20010904//EN"
 "http://www.w3.org/TR/2001/REC-SVG-20010904/DTD/svg10.dtd">
<svg version="1.0" xmlns="http://www.w3.org/2000/svg"
 width="270.000000pt" height="270.000000pt" viewBox="0 0 270.000000 270.000000"
 preserveAspectRatio="xMidYMid meet">

<g transform="translate(0.000000,270.000000) scale(0.100000,-0.100000)"
fill="#000000" stroke="none">
<path d="M0 1350 l0 -1350 678 0 c567 1 680 3 696 15 10 7 44 22 75 31 31 10
82 35 114 56 32 21 65 38 72 38 8 0 17 5 20 10 3 6 15 10 25 10 10 0 29 12 42
28 13 15 32 28 42 30 24 4 126 62 126 71 0 4 25 20 55 36 30 17 55 33 55 36 0
3 28 25 61 49 69 48 210 183 228 218 7 13 23 27 36 32 13 5 29 21 37 36 7 15
27 35 43 44 20 12 29 24 28 38 -2 15 6 23 32 32 18 6 44 25 57 41 21 27 138
116 138 104 0 -3 9 3 20 12 20 17 20 30 20 875 l0 858 -1350 0 -1350 0 0
-1350z m1213 988 c5 -39 3 -57 -7 -47 -10 10 -17 89 -8 89 5 0 12 -19 15 -42z
m301 5 c-3 -21 -11 -42 -17 -48 -6 -7 -8 1 -3 24 3 18 6 40 6 47 0 8 5 14 10
14 7 0 8 -14 4 -37z m-666 -94 c7 -12 11 -24 8 -27 -6 -6 -35 27 -36 41 0 14
15 7 28 -14z m272 11 c0 -5 -4 -10 -10 -10 -5 0 -10 5 -10 10 0 6 5 10 10 10
6 0 10 -4 10 -10z m490 6 c0 -3 -4 -8 -10 -11 -5 -3 -10 -1 -10 4 0 6 5 11 10
11 6 0 10 -2 10 -4z m264 -27 c-21 -24 -29 -18 -14 10 6 12 16 19 21 15 6 -4
4 -13 -7 -25z m-406 -9 c270 -34 524 -195 666 -424 180 -287 186 -672 17 -954
-99 -165 -231 -285 -406 -368 -321 -152 -690 -105 -979 126 -236 187 -365 509
-326 811 37 283 175 508 409 663 186 124 397 174 619 146z m-836 -212 c-15
-15 -26 -4 -18 18 5 13 9 15 18 6 9 -9 9 -15 0 -24z m1479 -13 c-1 -15 -24
-12 -29 3 -3 9 2 13 12 10 10 -1 17 -7 17 -13z m-1556 -45 c16 -16 25 -30 21
-30 -11 0 -66 43 -66 52 0 16 17 8 45 -22z m1645 21 c0 -10 -61 -51 -76 -51
-10 0 58 59 69 60 4 0 7 -4 7 -9z m-1703 -131 c14 -11 20 -20 12 -20 -15 1
-49 24 -49 34 0 11 11 7 37 -14z m1723 -10 c-14 -10 -27 -16 -30 -14 -2 3 6
14 20 24 14 10 27 16 30 14 2 -3 -6 -14 -20 -24z m-1765 -80 c20 -13 24 -20
14 -20 -18 0 -71 39 -54 40 6 0 24 -9 40 -20z m1825 0 c-23 -18 -50 -26 -50
-15 0 6 53 34 65 34 6 0 -1 -8 -15 -19z m60 -220 c-8 -5 -22 -9 -30 -9 -10 0
-8 3 5 9 27 12 43 12 25 0z m-1975 -100 c4 -6 -7 -10 -24 -10 -17 0 -31 5 -31
10 0 6 11 10 24 10 14 0 28 -4 31 -10z m2030 0 c-3 -5 -21 -10 -38 -10 -24 0
-28 3 -17 10 20 13 63 13 55 0z m30 -110 c4 -6 -11 -10 -37 -9 -36 1 -39 2
-18 9 36 11 48 11 55 0z m-2087 -7 c-10 -2 -28 -2 -40 0 -13 2 -5 4 17 4 22 1
32 -1 23 -4z m1942 -413 c0 -5 -4 -10 -10 -10 -5 0 -10 5 -10 10 0 6 5 10 10
10 6 0 10 -4 10 -10z m-1790 -100 c0 -11 -59 -44 -66 -37 -3 2 10 14 28 26 38
24 38 24 38 11z m1760 -5 c26 -14 41 -35 24 -35 -12 0 -64 34 -64 42 0 11 7
10 40 -7z m-1710 -95 c-33 -26 -52 -25 -21 0 13 11 28 20 35 20 6 0 0 -9 -14
-20z m1651 0 c17 -13 19 -19 9 -19 -16 0 -50 22 -50 33 0 12 18 6 41 -14z
m-59 -95 c0 -5 -5 -11 -11 -13 -6 -2 -11 4 -11 13 0 9 5 15 11 13 6 -2 11 -8
11 -13z m-922 -331 c0 -13 -4 -24 -10 -24 -5 0 -10 14 -10 31 0 17 4 28 10 24
6 -3 10 -17 10 -31z m310 6 c0 -16 -4 -30 -10 -30 -5 0 -10 14 -10 30 0 17 5
30 10 30 6 0 10 -13 10 -30z m-155 -50 c0 -18 -6 -35 -12 -37 -9 -3 -13 8 -13
37 0 29 4 40 13 38 6 -3 12 -20 12 -38z"/>
<path d="M1190 2155 c-143 -29 -284 -98 -392 -193 -50 -44 -76 -71 -136 -144
-13 -15 -9 -20 37 -48 28 -18 51 -34 51 -36 0 -6 -5 -3 -64 34 -38 23 -40 24
-53 6 -7 -10 -13 -21 -13 -24 0 -8 130 -84 155 -90 11 -4 20 -14 20 -25 0 -27
-39 -27 -43 0 -3 19 -116 95 -140 95 -27 0 -94 -210 -108 -337 l-6 -62 68 -4
69 -3 -67 -2 -68 -2 0 -43 c0 -67 37 -244 56 -266 1 -1 37 16 78 40 52 29 79
51 87 71 6 16 14 26 17 24 2 -3 -1 -18 -7 -34 -8 -19 -34 -41 -79 -67 -98 -56
-94 -50 -69 -101 11 -24 25 -44 29 -44 8 0 58 29 68 40 3 3 19 10 35 15 19 7
31 18 33 33 4 23 35 31 47 12 9 -15 -15 -42 -31 -36 -7 3 -24 -6 -39 -20 -14
-13 -30 -24 -36 -24 -5 0 -22 -8 -37 -17 -15 -9 -28 -18 -30 -19 -6 -3 11 -34
20 -34 5 0 51 25 102 55 51 30 102 57 112 61 11 3 -32 -24 -93 -61 -62 -37
-113 -70 -113 -73 0 -4 4 -14 10 -22 7 -12 15 -11 52 9 24 13 50 30 59 37 8 8
18 14 22 14 3 0 29 14 58 30 28 17 53 29 56 27 2 -3 -21 -19 -51 -37 -31 -17
-56 -36 -56 -41 0 -5 -7 -9 -16 -9 -8 0 -35 -12 -59 -26 l-44 -26 22 -30 c36
-50 176 -155 267 -203 98 -50 199 -81 300 -91 l70 -7 2 49 c0 27 0 57 0 67 -1
10 2 26 8 35 7 12 9 -7 10 -65 l0 -83 40 0 c177 0 421 113 569 263 l63 65 -44
26 c-25 14 -52 26 -61 26 -10 0 -17 4 -17 9 0 5 -25 24 -56 41 -30 18 -53 34
-51 37 3 2 26 -10 53 -26 26 -17 56 -31 66 -31 10 0 18 -4 18 -9 0 -5 21 -21
46 -35 36 -20 50 -24 60 -15 8 6 14 15 14 20 0 5 -36 29 -80 55 -44 25 -80 48
-80 51 0 2 26 -10 58 -28 120 -69 111 -65 122 -49 11 18 -1 34 -42 51 -17 7
-42 23 -56 36 -14 13 -30 23 -36 22 -27 -3 -36 2 -36 21 0 30 38 26 50 -5 6
-17 20 -27 40 -31 16 -4 30 -9 30 -13 0 -8 54 -41 67 -41 11 0 43 64 43 85 0
7 -33 31 -72 52 -42 23 -78 50 -85 64 -40 80 -41 86 -24 104 15 15 15 16 -1 9
-11 -3 -18 -1 -18 5 0 6 9 11 20 11 22 0 25 -12 11 -39 -7 -12 -4 -30 9 -58
14 -33 32 -49 88 -82 39 -23 75 -41 80 -41 18 0 61 197 62 283 0 27 -1 27 -64
27 -43 0 -75 -6 -94 -17 -28 -16 -32 -16 -49 -1 -11 10 -41 18 -73 21 l-55 3
56 2 c36 1 61 7 69 17 7 8 20 15 30 15 10 0 23 -7 30 -15 9 -11 32 -15 82 -15
l69 0 -7 63 c-10 89 -40 202 -74 275 -16 34 -32 62 -35 62 -3 0 -35 -17 -70
-37 -42 -24 -65 -44 -67 -57 -4 -26 -43 -29 -43 -4 0 15 41 43 143 95 36 19
37 21 17 47 -11 14 -18 16 -27 8 -22 -17 -139 -82 -134 -73 3 5 35 26 71 47
35 22 65 44 65 50 0 15 -86 112 -145 163 -134 114 -348 199 -507 201 l-38 0 0
-76 c0 -47 -4 -73 -10 -69 -5 3 -10 37 -10 76 l0 69 -42 -1 c-24 0 -72 -7
-108 -14z m47 -85 c-3 -18 -35 -26 -49 -12 -7 7 -6 20 3 41 l14 31 17 -22 c10
-13 17 -30 15 -38z m283 20 c0 -52 36 -90 85 -90 19 0 35 -4 35 -10 0 -5 -9
-10 -20 -10 -18 0 -20 -7 -22 -82 l-2 -83 -3 83 c-4 87 -13 100 -46 61 -23
-27 -57 -21 -76 13 -14 25 -14 29 7 51 15 16 22 36 22 65 0 23 5 42 10 42 6 0
10 -18 10 -40z m-383 -61 c20 -24 6 -51 -26 -47 -30 4 -39 29 -16 51 8 9 15
22 16 29 0 9 2 8 6 -2 3 -8 12 -22 20 -31z m473 20 c0 -5 -4 -9 -10 -9 -5 0
-10 7 -10 16 0 8 5 12 10 9 6 -3 10 -10 10 -16z m-578 -4 c0 -5 -5 -11 -11
-13 -6 -2 -11 4 -11 13 0 9 5 15 11 13 6 -2 11 -8 11 -13z m668 -1 c0 -9 -5
-14 -12 -12 -18 6 -21 28 -4 28 9 0 16 -7 16 -16z m-660 -146 c10 -65 1 -96
-33 -107 -16 -6 -33 -9 -35 -6 -3 3 -1 5 4 5 5 0 20 9 34 21 l25 20 -37 -17
c-42 -20 -64 -11 -33 13 20 15 20 15 -2 8 -16 -4 -23 -2 -23 7 0 8 -25 27 -55
43 -30 17 -55 32 -55 35 0 3 23 19 52 37 l52 31 51 -29 c41 -23 51 -34 55 -61z
m838 -47 l-3 -74 -52 -29 -53 -30 0 76 0 77 35 21 c36 20 43 39 9 20 -12 -7
-25 -7 -36 -1 -11 6 -25 6 -35 1 -19 -10 -63 1 -63 15 0 4 20 20 43 34 l42 26
58 -31 57 -31 -2 -74z m-512 118 c10 -17 -13 -36 -27 -22 -12 12 -4 33 11 33
5 0 12 -5 16 -11z m-245 -165 c-7 -21 -10 -23 -10 -8 -1 11 -7 26 -13 32 -10
10 -10 17 0 32 6 11 13 32 13 47 1 17 5 7 10 -23 5 -28 4 -63 0 -80z m359 106
c0 -5 -4 -10 -10 -10 -5 0 -10 5 -10 10 0 6 5 10 10 10 6 0 10 -4 10 -10z m37
-57 c-2 -16 -4 -5 -4 22 0 28 2 40 4 28 2 -13 2 -35 0 -50z m88 -115 l245
-141 0 -278 0 -278 -32 18 -33 19 -170 -99 c-265 -155 -259 -153 -298 -133
-37 19 -305 176 -359 210 -21 13 -45 21 -55 18 -17 -5 -17 -5 0 6 13 8 17 24
16 68 0 31 -3 51 -6 45 -6 -17 -33 -17 -34 0 -1 6 -5 1 -9 -13 -5 -14 -8 70
-9 197 l-1 222 43 25 c23 13 132 76 242 140 110 63 203 116 208 116 4 0 118
-64 252 -142z m-845 97 c0 -8 -4 -15 -10 -15 -5 0 -10 7 -10 15 0 8 5 15 10
15 6 0 10 -7 10 -15z m1210 0 c0 -8 -4 -15 -10 -15 -5 0 -10 7 -10 15 0 8 5
15 10 15 6 0 10 -7 10 -15z m-40 -65 c0 -5 -4 -10 -10 -10 -5 0 -10 5 -10 10
0 6 5 10 10 10 6 0 10 -4 10 -10z m-1230 -420 c14 -14 35 -21 73 -22 l52 -2
-54 -3 c-30 -2 -60 -11 -68 -19 -33 -33 -81 10 -50 44 14 15 17 43 19 163 l2
144 3 -143 c3 -126 6 -145 23 -162z m1339 163 c0 -87 -4 -131 -9 -118 -16 37
-11 255 6 255 2 0 4 -62 3 -137z m68 80 c-3 -10 -5 -2 -5 17 0 19 2 27 5 18 2
-10 2 -26 0 -35z m-1500 0 c-3 -10 -5 -4 -5 12 0 17 2 24 5 18 2 -7 2 -21 0
-30z m17 -55 c8 -13 7 -21 -3 -30 -11 -10 -12 -10 -7 0 10 18 -4 38 -15 21 -7
-11 -9 -11 -9 -1 0 7 -5 10 -10 7 -6 -4 -7 -12 -4 -18 5 -9 3 -9 -6 0 -11 10
-11 15 0 28 16 19 39 16 54 -7z m186 1 c0 -5 -7 -9 -15 -9 -15 0 -20 12 -9 23
8 8 24 -1 24 -14z m1106 -6 c-10 -10 -19 5 -10 18 6 11 8 11 12 0 2 -7 1 -15
-2 -18z m212 18 c20 -12 11 -55 -13 -59 -20 -4 -20 -3 -1 11 12 8 16 19 11 27
-6 10 -9 9 -16 -1 -7 -12 -9 -11 -10 1 0 8 -4 4 -8 -10 -6 -21 -8 -22 -14 -8
-3 10 0 24 9 33 18 17 24 18 42 6z m-161 -48 c-3 -10 -5 -4 -5 12 0 17 2 24 5
18 2 -7 2 -21 0 -30z m-1167 -43 c11 -21 7 -34 -19 -61 -15 -15 -18 -14 -38 8
-26 28 -26 28 -13 54 14 25 56 25 70 -1z m1174 -38 c-15 -22 -39 -29 -31 -8 4
9 2 16 -3 16 -21 0 -9 20 13 21 12 0 16 3 9 6 -6 2 -9 10 -5 16 4 7 10 2 17
-12 7 -15 7 -28 0 -39z m-1369 -21 c-13 -14 -17 -14 -31 0 -14 15 -14 18 2 34
17 16 18 16 31 -1 11 -15 11 -20 -2 -33z m1532 5 c-8 -20 -36 -21 -43 -1 -4 8
0 22 7 31 11 13 14 13 27 0 8 -8 12 -22 9 -30z m-1484 -274 c-15 -12 -36 -30
-45 -38 -21 -21 -48 -11 -48 16 0 25 25 37 44 21 33 -28 65 13 68 86 l2 48 3
-55 c4 -50 2 -57 -24 -78z m-43 102 c11 -12 10 -18 -3 -32 -14 -13 -19 -14
-29 -3 -11 10 -9 11 6 5 14 -5 17 -3 14 7 -3 8 -11 13 -17 12 -12 -3 -15 10
-4 20 10 11 19 8 33 -9z m1530 -8 c0 -22 -18 -39 -34 -33 -19 7 -21 43 -3 50
17 6 37 -3 37 -17z m-83 -88 c19 -21 39 -23 46 -5 7 18 42 -6 42 -29 0 -23
-34 -32 -49 -12 -6 7 -23 21 -38 31 -25 15 -28 23 -26 65 1 47 1 47 5 7 3 -22
12 -48 20 -57z m-1273 64 c14 8 17 7 14 -3 -2 -7 -16 -16 -31 -20 -16 -4 -25
-3 -21 2 3 5 0 9 -5 9 -6 0 -11 5 -11 10 0 7 6 7 18 1 11 -6 24 -6 36 1z m204
-348 c42 -25 44 -28 27 -40 -10 -8 -23 -14 -29 -14 -5 0 -2 6 8 13 18 13 20
13 -91 6 -23 -2 -45 0 -48 3 -5 4 71 56 84 58 2 0 25 -12 49 -26z m192 0 c0
-2 -9 0 -20 6 -11 6 -20 13 -20 16 0 2 9 0 20 -6 11 -6 20 -13 20 -16z m648
-4 c47 -27 52 -34 52 -65 0 -30 -5 -37 -55 -67 -30 -17 -53 -34 -51 -36 2 -2
22 8 45 22 49 31 61 32 61 7 0 -13 -19 -30 -57 -52 l-56 -32 -53 27 -52 28 -4
69 -3 70 50 29 c28 16 55 30 60 30 6 0 34 -14 63 -30z m-743 0 c3 -5 1 -10 -4
-10 -6 0 -11 5 -11 10 0 6 2 10 4 10 3 0 8 -4 11 -10z m185 -47 c0 -7 -39 17
-46 28 -3 6 5 3 20 -6 14 -10 26 -19 26 -22z m90 -49 c0 -2 -13 2 -30 11 -16
9 -30 18 -30 21 0 2 14 -2 30 -11 17 -9 30 -18 30 -21z m-313 -6 c-2 -25 -9
-36 -35 -51 -37 -22 -52 -16 -34 13 10 16 9 18 -3 14 -27 -11 -16 5 22 31 48
32 52 32 50 -7z m153 -118 c22 -22 26 -45 10 -55 -5 -3 -10 -17 -10 -31 0 -13
-4 -24 -10 -24 -5 0 -10 9 -10 19 0 11 -9 23 -20 26 -24 8 -27 47 -5 65 10 8
16 34 17 79 l2 66 3 -63 c3 -46 9 -68 23 -82z m90 60 c0 -5 -4 -10 -10 -10 -5
0 -10 5 -10 10 0 6 5 10 10 10 6 0 10 -4 10 -10z m72 -5 c0 -5 -5 -11 -11 -13
-6 -2 -11 4 -11 13 0 9 5 15 11 13 6 -2 11 -8 11 -13z m68 5 c0 -5 -2 -10 -4
-10 -3 0 -8 5 -11 10 -3 6 -1 10 4 10 6 0 11 -4 11 -10z m97 -32 c-3 -8 -6 -5
-6 6 -1 11 2 17 5 13 3 -3 4 -12 1 -19z m20 -29 c16 -16 5 -39 -17 -39 -25 0
-35 18 -20 35 15 18 22 19 37 4z m-527 -30 c0 -5 -7 -9 -15 -9 -15 0 -20 12
-9 23 8 8 24 -1 24 -14z m422 -26 c13 -16 3 -43 -16 -43 -23 0 -25 12 -13 53
8 25 13 32 16 20 2 -10 8 -24 13 -30z m258 32 c0 -8 -4 -15 -10 -15 -5 0 -10
7 -10 15 0 8 5 15 10 15 6 0 10 -7 10 -15z m-600 -45 c0 -5 -7 -10 -15 -10 -8
0 -15 5 -15 10 0 6 7 10 15 10 8 0 15 -4 15 -10z m425 -29 c3 -5 1 -12 -5 -16
-5 -3 -10 1 -10 9 0 18 6 21 15 7z"/>
<path d="M1497 1985 c-8 -18 11 -31 25 -17 11 11 3 32 -12 32 -4 0 -10 -7 -13
-15z"/>
<path d="M1166 1592 l-186 -107 0 -182 0 -181 34 -21 c18 -12 36 -21 40 -21 3
0 6 72 6 159 0 180 -2 174 81 217 l49 24 0 -239 0 -239 36 -21 c19 -12 39 -21
45 -21 5 0 9 115 9 289 l0 289 36 23 36 22 36 -21 37 -21 3 -290 c1 -160 5
-291 8 -291 2 0 23 9 44 20 l40 20 0 300 0 299 -27 19 c-16 10 -53 32 -84 50
l-56 31 -187 -107z"/>
<path d="M1640 1305 c0 -124 2 -225 5 -225 3 0 24 9 45 20 l40 20 0 183 0 182
-40 23 c-21 12 -41 22 -44 22 -4 0 -6 -101 -6 -225z"/>
<path d="M913 1270 c0 -25 2 -35 4 -22 2 12 2 32 0 45 -2 12 -4 2 -4 -23z"/>
<path d="M744 1449 c-3 -6 -1 -16 4 -21 13 -13 45 8 36 23 -7 12 -31 11 -40
-2z"/>
<path d="M580 1410 c0 -5 5 -10 10 -10 6 0 10 5 10 10 0 6 -4 10 -10 10 -5 0
-10 -4 -10 -10z"/>
<path d="M2100 1410 c0 -5 4 -10 9 -10 6 0 13 5 16 10 3 6 -1 10 -9 10 -9 0
-16 -4 -16 -10z"/>
<path d="M575 1111 c-6 -11 9 -23 19 -14 9 9 7 23 -3 23 -6 0 -12 -4 -16 -9z"/>
<path d="M2100 1214 c0 -17 22 -14 28 4 2 7 -3 12 -12 12 -9 0 -16 -7 -16 -16z"/>
<path d="M2110 1110 c0 -5 5 -10 10 -10 6 0 10 5 10 10 0 6 -4 10 -10 10 -5 0
-10 -4 -10 -10z"/>
<path d="M1802 775 c-1 -14 3 -25 8 -25 6 0 10 11 10 25 0 14 -4 25 -8 25 -4
0 -9 -11 -10 -25z"/>
<path d="M1160 600 c0 -15 5 -20 18 -18 9 2 17 10 17 18 0 8 -8 16 -17 18 -13
2 -18 -3 -18 -18z"/>
<path d="M765 1641 c-3 -5 -1 -12 5 -16 5 -3 10 1 10 9 0 18 -6 21 -15 7z"/>
<path d="M1925 1640 c-3 -5 -1 -10 4 -10 6 0 11 5 11 10 0 6 -2 10 -4 10 -3 0
-8 -4 -11 -10z"/>
<path d="M760 990 c0 -5 5 -10 10 -10 6 0 10 5 10 10 0 6 -4 10 -10 10 -5 0
-10 -4 -10 -10z"/>
<path d="M1925 990 c-3 -5 -1 -10 4 -10 6 0 11 5 11 10 0 6 -2 10 -4 10 -3 0
-8 -4 -11 -10z"/>
</g>
</svg>
